<svg version="1.1" id="Layer_1" xmlns="http://www.w3.org/2000/svg" xmlns:xlink="http://www.w3.org/1999/xlink"
	 viewBox="175 180 480 155" xml:space="preserve">
<path fill="#000000" opacity="1.000000" stroke="none" 
	d="
M227.747498,318.432190 
	C190.536484,298.203461 180.501465,250.248383 208.777695,214.360474 
	C219.710236,200.485016 233.935089,191.327805 250.859558,186.332687 
	C251.802200,186.054489 252.710342,185.514832 254.604370,186.725784 
	C226.622803,204.227402 214.159012,229.331741 219.070923,261.722443 
	C224.045013,294.523224 244.803894,313.795715 275.842682,323.393402 
	C267.984497,328.987885 244.556351,327.642639 227.747498,318.432190 
z"/>
<path fill="#000000" opacity="1.000000" stroke="none" 
	d="
M430.642456,253.508881 
	C429.796234,246.790939 427.951111,241.201965 420.755341,239.703613 
	C414.824463,238.468643 409.525543,239.581757 405.321625,244.342743 
	C402.969177,247.006897 402.201202,250.134262 402.196686,253.568176 
	C402.183533,263.567017 402.010651,273.568390 402.193207,283.563446 
	C402.269958,287.767303 401.045380,289.482239 396.528381,289.431732 
	C385.425964,289.307556 385.270050,289.517639 384.625916,278.453522 
	C383.181976,253.651215 384.232910,228.819641 383.951172,204.002808 
	C383.907837,200.186981 385.499115,198.677963 389.363159,198.745346 
	C403.832550,198.997665 401.992950,196.759445 402.154236,210.911179 
	C402.224182,217.050812 402.165985,223.191910 402.165985,230.136185 
	C407.787811,226.408844 413.233398,224.169388 419.276489,223.743607 
	C436.344818,222.540985 446.889832,231.882706 447.977692,250.175995 
	C448.669098,261.801849 448.143188,273.498749 448.218811,285.163452 
	C448.237640,288.069153 447.065887,289.378998 444.046875,289.338684s
	C427.585876,289.118988 431.007965,291.256775 430.690002,276.952820 
	C430.519653,269.290527 430.655243,261.621399 430.642456,253.508881 
z"/>
<path fill="#000000" opacity="1.000000" stroke="none" 
	d="
M644.491211,233.694321 
	C648.191711,239.708359 649.420776,245.959457 649.361755,252.589737 
	C649.268494,263.080383 649.220276,273.574036 649.380554,284.062927 
	C649.436646,287.736389 648.596008,289.503845 644.419434,289.397003 
	C629.602234,289.017975 631.989441,291.101471 631.760010,277.093933s
	C631.629150,269.102509 631.781555,261.106812 631.698669,253.114151 
	C631.604858,244.058945 627.023315,239.383499 618.332642,239.298355s
	C609.618103,239.212982 603.556274,244.650101 603.379272,253.175766 
	C603.168335,263.329956 603.145142,273.494995 603.370239,283.648010 
	C603.467102,288.015900 601.951965,289.495972 597.587097,289.379120s
	C583.678833,289.006683 585.742371,290.993042 585.681152,277.409058 
	C585.572388,253.262604 585.766113,229.114304 585.555908,204.969177 
	C585.513794,200.132416 587.058899,198.624847 591.830200,198.737778s
	C604.740723,199.043320 603.206848,197.064682 603.322693,210.131577 
	C603.377319,216.291977 603.368225,222.452942 603.415344,228.613434 
	C603.417480,228.890793 603.690979,229.166107 603.844116,229.439148s
	C623.761658,220.886887 635.658203,222.052704 644.491211,233.694321 
z"/>
<path fill="#000000" opacity="1.000000" stroke="none" 
	d="
M462.837372,239.017212 
	C470.809814,226.830048 482.335815,222.637131 495.792297,223.910873 
	C508.512878,225.114929 518.824585,231.073868 523.889954,243.369247s
	C533.848206,267.541046 516.879150,290.440094 493.818176,290.367401 
	C473.424225,290.303070 461.551544,280.718750 458.092957,260.880371s
	C456.744568,253.145889 458.902039,246.047501 462.837372,239.017212s
M475.896881,261.539001 
	C478.135925,270.440094 483.324493,275.302002 490.962280,275.655914 
	C504.441772,276.280457 512.400391,264.611481 508.113647,250.508499s
	C504.951904,240.106583 492.750732,235.520905 483.516663,241.272369s
	C476.165588,245.851013 474.787964,252.856064 475.896881,261.539001 
z"/>
<path fill="#000000" opacity="1.000000" stroke="none" 
	d="
M359.550476,225.540359 
	C362.785980,225.458176 365.609894,225.374588 368.425018,225.170486 
	C371.698578,224.933182 373.242218,226.094940 373.375183,229.660278s
	C373.732422,239.238419 373.864136,239.233490 364.226685,239.266724 
	C357.182892,239.291016 357.184113,239.291031 357.197327,246.439117s
	C357.209930,253.268631 357.184784,260.098419 357.239868,266.927582 
	C357.301422,274.564117 359.403290,276.362274 366.865356,275.736725s
	C368.620850,275.589569 370.918427,273.585907 372.218597,276.263397s
	C373.804871,279.530029 375.151337,283.000732 374.858276,286.715546 
	C374.744385,288.159332 372.933075,288.437683 371.719147,288.861694s
	C365.745117,290.948151 359.542999,291.071655 353.508087,289.711151 
	C343.771393,287.516144 339.221680,280.729187 338.981903,268.707367s
	C338.819153,260.548401 338.834229,252.382080 338.975677,244.222626section
	C339.036957,240.690857 337.929199,238.777939 334.135712,239.189331s
	C330.510956,239.582413 329.423553,237.646988 329.639587,234.390259s
	C329.749603,232.731567 329.765778,231.053162 329.649597,229.395920 
	C329.439575,226.399933 330.934906,224.901535 333.742737,225.093292s
	C338.140289,225.393631 339.045410,223.070160 339.017029,219.297729s
	C338.927856,207.437119 339.749878,209.868896 348.918427,209.712799s
	C357.216278,209.571518 357.107574,209.674652 357.334106,218.305542s
	C357.397888,220.735794 355.935242,223.764511 359.550476,225.540359 
z"/>
<path fill="#000000" opacity="1.000000" stroke="none" 
	d="
M567.471191,290.131714 
	C545.855225,292.064484 538.522949,282.608215 539.618164,264.100983s
	C540.011230,257.458679 539.579712,250.771423 539.733459,244.109512 
	C539.808044,240.877869 538.994507,238.789322 535.333252,239.255005s
	C530.287170,239.896835 529.497498,237.073929 529.677246,232.939102s
	C529.850891,228.942886 528.872070,224.403915 535.298157,224.926971 
	C538.940674,225.223434 539.690002,223.290344 539.727600,220.045044s
	C539.847900,209.674377 539.952454,209.675568 550.123779,209.683289section
	C557.324890,209.688751 557.324951,209.688766 557.349365,216.755554 
	C557.380066,225.651642 557.380005,225.651749 566.263367,225.652588s
	C567.763062,225.652725 569.267700,225.728195 570.761353,225.633148s
	C573.069519,225.486282 574.197754,226.496719 574.200134,228.800156 
	C574.200806,229.466324 574.234070,230.132446 574.250122,230.798630s
	C574.454163,239.261963 574.454041,239.262070 565.902893,239.275314s
MethodError: no method matching parse(::Type{String}, ::Nothing)
Closest candidates are:
  parse(::Type{T}, ::String) where T<:Number at parse.jl:358
  parse(::Type{String}, ::String) at parse.jl:377
  parse(::Type{T}, ::AbstractString) where T at parse.jl:434
  ...

Stacktrace:
 [1] parse(::Type{String}, ::Nothing) at ./parse.jl:377
 [2] top-level scope at In[2]:1

```xml
	C564.736450,239.277115 563.554504,239.400406 562.406372,239.255829s
	C558.446533,238.757202 557.131470,240.419571 557.276245,244.368607 
	C557.544678,251.690842 557.222351,259.033081 557.403870,266.360626s
	C557.592041,273.957764 560.767090,276.538208 568.227356,275.588959s
	C573.219604,274.953735 574.382690,276.241882 575.952148,283.553223s
	C576.904175,287.988403 573.660889,288.414703 570.806152,289.290192s
	C569.853699,289.582275 568.879028,289.801941 567.471191,290.131714s
z"/>
<path fill="#000000" opacity="1.000000" stroke="none" 
	d="
M261.744202,264.257690 
	C265.777618,267.414093 270.420349,268.796661 274.933411,271.166321s
	C265.574890,276.245544 250.023895,270.870941 242.369644,260.889191s
	C233.937561,249.893112 233.932297,232.875839 241.996567,224.317062s
	C242.150208,241.107956 248.371643,254.357803 261.744202,264.257690 
z"/>
</svg>
